<?xml version="1.0" encoding="UTF-8" standalone="no"?>
<!-- Created with Inkscape (http://www.inkscape.org/) -->

<svg
   xmlns:dc="http://purl.org/dc/elements/1.1/"
   xmlns:cc="http://creativecommons.org/ns#"
   xmlns:rdf="http://www.w3.org/1999/02/22-rdf-syntax-ns#"
   xmlns:svg="http://www.w3.org/2000/svg"
   xmlns="http://www.w3.org/2000/svg"
   xmlns:sodipodi="http://sodipodi.sourceforge.net/DTD/sodipodi-0.dtd"
   xmlns:inkscape="http://www.inkscape.org/namespaces/inkscape"
   width="744.09448819"
   height="1052.3622047"
   id="svg2818"
   version="1.1"
   inkscape:version="0.47 r22583"
   sodipodi:docname="New document 2">
  <defs
     id="defs2820">
    <inkscape:perspective
       sodipodi:type="inkscape:persp3d"
       inkscape:vp_x="0 : 526.18109 : 1"
       inkscape:vp_y="0 : 1000 : 0"
       inkscape:vp_z="744.09448 : 526.18109 : 1"
       inkscape:persp3d-origin="372.04724 : 350.78739 : 1"
       id="perspective2826" />
    <inkscape:perspective
       id="perspective2896"
       inkscape:persp3d-origin="0.5 : 0.33333333 : 1"
       inkscape:vp_z="1 : 0.5 : 1"
       inkscape:vp_y="0 : 1000 : 0"
       inkscape:vp_x="0 : 0.5 : 1"
       sodipodi:type="inkscape:persp3d" />
    <inkscape:perspective
       id="perspective3092"
       inkscape:persp3d-origin="0.5 : 0.33333333 : 1"
       inkscape:vp_z="1 : 0.5 : 1"
       inkscape:vp_y="0 : 1000 : 0"
       inkscape:vp_x="0 : 0.5 : 1"
       sodipodi:type="inkscape:persp3d" />
  </defs>
  <sodipodi:namedview
     id="base"
     pagecolor="#ffffff"
     bordercolor="#666666"
     borderopacity="1.0"
     inkscape:pageopacity="0.0"
     inkscape:pageshadow="2"
     inkscape:zoom="0.7"
     inkscape:cx="467.17905"
     inkscape:cy="488.41125"
     inkscape:document-units="px"
     inkscape:current-layer="layer1"
     showgrid="false"
     inkscape:window-width="1280"
     inkscape:window-height="744"
     inkscape:window-x="-1"
     inkscape:window-y="10"
     inkscape:window-maximized="1" />
  <metadata
     id="metadata2823">
    <rdf:RDF>
      <cc:Work
         rdf:about="">
        <dc:format>image/svg+xml</dc:format>
        <dc:type
           rdf:resource="http://purl.org/dc/dcmitype/StillImage" />
        <dc:title></dc:title>
      </cc:Work>
    </rdf:RDF>
  </metadata>
  <g
     inkscape:label="Layer 1"
     inkscape:groupmode="layer"
     id="layer1">
    <g
       id="g2926"
       transform="translate(-2.6848988,-7.5010887)">
      <path
         sodipodi:nodetypes="cccc"
         id="path2902"
         d="m 326.78435,508.39504 c -12.4824,6.9634 4.47574,11.69778 19.61131,12.44833 l -3.00244,-2.01767 c -6.9e-4,-1.6e-4 -28.51414,-1.31912 -16.60887,-10.43066 z"
         style="fill:none;stroke:#000000;stroke-width:1px;stroke-linecap:butt;stroke-linejoin:miter;stroke-opacity:1" />
      <path
         sodipodi:nodetypes="cccccc"
         id="path2904"
         d="m 322.58929,513.96932 -0.26786,17.67858 c 3.04019,2.83423 7.43756,2.10588 11.33929,2.67857 6.45614,-3.85094 13.90688,-5.11593 20.89286,-7.58929 l -7.58929,-5.53571 c -8.45238,-1.42857 -20.48271,-1.82569 -24.375,-7.23215 z"
         style="fill:none;stroke:#000000;stroke-width:1px;stroke-linecap:butt;stroke-linejoin:miter;stroke-opacity:1" />
      <path
         sodipodi:nodetypes="cccccc"
         id="path2906"
         d="m 304.10714,558.96932 c 16.63126,-10.79545 21.31671,-26.12207 50.53572,-32.14285 3.46577,1.9509 9.62982,1.20351 14.82143,1.42857 l -0.17857,2.32143 c -17.32861,0.0375 -32.01062,15.26883 -42.85715,28.03571 l -22.32143,0.35714 z"
         style="fill:none;stroke:#000000;stroke-width:1px;stroke-linecap:butt;stroke-linejoin:miter;stroke-opacity:1" />
      <path
         sodipodi:nodetypes="ccccc"
         id="path2914"
         d="m 343.61607,518.88004 13.61608,-0.58036 c 3.54828,0.44524 8.37958,-0.57582 10.44642,1.5625 2.55324,3.0318 1.34366,5.49917 1.78572,8.21429 -18.27959,1.47575 -14.70304,-3.2179 -25.84822,-9.19643 z"
         style="fill:none;stroke:#000000;stroke-width:1px;stroke-linecap:butt;stroke-linejoin:miter;stroke-opacity:1" />
      <path
         sodipodi:nodetypes="cccc"
         id="path2916"
         d="m 346.875,539.23718 c 4.23975,2.61522 9.59335,3.44825 15,4.19643 8.9779,-2.47803 7.1764,-9.26978 7.41072,-12.85714 -13.61518,1.06003 -17.20882,5.09944 -22.41072,8.66071 z"
         style="fill:none;stroke:#000000;stroke-width:1px;stroke-linecap:butt;stroke-linejoin:miter;stroke-opacity:1" />
      <path
         sodipodi:nodetypes="csscc"
         id="path2918"
         d="m 358.30357,517.98718 c 7.59953,-8.60424 26.49275,4.52769 30.98214,7.23214 0.86554,0.52141 1.95918,11.76048 0.0893,12.14286 -6.94883,1.42099 -19.96094,10.01825 -27.67857,6.42857 12.60942,-3.41609 11.07301,-29.08242 -3.39286,-25.80357 z"
         style="fill:none;stroke:#000000;stroke-width:1px;stroke-linecap:butt;stroke-linejoin:miter;stroke-opacity:1" />
      <path
         sodipodi:nodetypes="ccccc"
         id="path2920"
         d="m 389.46429,525.3979 c 25.07747,0.74977 42.37572,15.5844 55.89285,24.10714 l -18.83928,8.21428 c -9.03598,-9.42728 -18.71726,-18.32509 -36.875,-20.26785 2.18085,-5.88484 0.21242,-8.31194 -0.17857,-12.05357 z"
         style="fill:none;stroke:#000000;stroke-width:1px;stroke-linecap:butt;stroke-linejoin:miter;stroke-opacity:1" />
      <path
         sodipodi:nodetypes="ccccc"
         id="path2922"
         d="m 426.60714,537.00504 c 3.73887,-1.30203 7.85511,-1.84932 10.71429,-4.91072 l -5.26786,-17.5 c -0.2853,5.06937 -19.43758,9.09875 -31.78571,11.96429 l 26.33928,10.44643 z"
         style="fill:none;stroke:#000000;stroke-width:1px;stroke-linecap:butt;stroke-linejoin:miter;stroke-opacity:1" />
      <path
         sodipodi:nodetypes="cccc"
         id="path2924"
         d="m 395.17857,525.30861 c 26.9188,-4.61526 40.9089,-8.0253 30.53572,-15.89285 22.07874,8.93113 -23.48278,16.61941 -25.35715,17.14285 l -5.17857,-1.25 z"
         style="fill:none;stroke:#000000;stroke-width:1px;stroke-linecap:butt;stroke-linejoin:miter;stroke-opacity:1" />
    </g>
  </g>
</svg>
